<svg width="172" height="32" viewBox="0 0 172 32" fill="none" xmlns="http://www.w3.org/2000/svg">
<path d="M0.66381 12.8051C0.434661 13.0178 0.212734 13.2398 0 13.4696C0.759672 12.8852 1.585 12.3901 2.45826 11.9942C5.97101 10.4302 10.0025 10.5747 13.3872 12.3711C13.7299 12.574 13.8914 12.4762 13.9794 12.1163C14.8973 8.39088 17.4803 5.28721 20.9924 3.71206C21.8696 3.32599 22.7888 3.04169 23.731 2.86572C22.0581 2.89396 20.4074 3.2577 18.8775 3.93596C16.1553 5.1618 13.9617 7.32196 12.6958 10.0245C9.83699 9.16434 6.76482 9.35738 4.03604 10.5681C2.79641 11.1262 1.65788 11.8826 0.664466 12.8051H0.66381Z" fill="#121723"/>
<path d="M17.6914 25.3181L19.2509 21.8452C20.9234 23.0692 23.4166 23.923 25.7984 23.923C28.5193 23.923 29.6251 23.0116 29.6251 21.7876C29.6251 18.058 18.0895 20.6212 18.0895 13.2197C18.0895 9.8323 20.8104 7.01416 26.4504 7.01416C28.9453 7.01416 31.4958 7.61131 33.3387 8.77943L31.9217 12.2803C30.0788 11.2274 28.1803 10.7141 26.4226 10.7141C23.7017 10.7141 22.6533 11.739 22.6533 12.9909C22.6533 16.6629 34.1888 14.1294 34.1888 21.4454C34.1888 24.7751 31.4401 27.6229 25.7706 27.6229C22.6238 27.6229 19.4509 26.6835 17.6931 25.3164L17.6914 25.3181Z" fill="#121723"/>
<path d="M49.8025 18.5434V27.2824H45.6647V25.3757C44.8423 26.7708 43.255 27.5112 41.0157 27.5112C37.4446 27.5112 35.3184 25.5189 35.3184 22.8719C35.3184 20.2248 37.2169 18.2885 41.8659 18.2885H45.3813C45.3813 16.3818 44.2477 15.2713 41.8659 15.2713C40.2507 15.2713 38.5782 15.8125 37.4725 16.6943L35.8851 13.5915C37.5576 12.3955 40.023 11.7407 42.4605 11.7407C47.1094 11.7407 49.8008 13.9041 49.8008 18.5434H49.8025ZM45.3813 22.4423V20.8761H42.3475C40.2785 20.8761 39.6266 21.6444 39.6266 22.6693C39.6266 23.7798 40.5619 24.5202 42.1214 24.5202C43.5958 24.5202 44.8701 23.8374 45.3813 22.4423Z" fill="#121723"/>
<path d="M66.5799 18.5434V27.2824H62.442V25.3757C61.6197 26.7708 60.0323 27.5112 57.793 27.5112C54.222 27.5112 52.0957 25.5189 52.0957 22.8719C52.0957 20.2248 53.9942 18.2885 58.6432 18.2885H62.1586C62.1586 16.3818 61.0251 15.2713 58.6432 15.2713C57.0281 15.2713 55.3555 15.8125 54.2498 16.6943L52.6625 13.5915C54.335 12.3955 56.8003 11.7407 59.2378 11.7407C63.8868 11.7407 66.5781 13.9041 66.5781 18.5434H66.5799ZM62.1586 22.4423V20.8761H59.1248C57.0559 20.8761 56.4039 21.6444 56.4039 22.6693C56.4039 23.7798 57.3393 24.5202 58.8988 24.5202C60.3731 24.5202 61.6475 23.8374 62.1586 22.4423Z" fill="#121723"/>
<path d="M68.6211 25.3181L70.1806 21.8452C71.8531 23.0692 74.3463 23.923 76.7281 23.923C79.449 23.923 80.5547 23.0116 80.5547 21.7876C80.5547 18.058 69.0192 20.6212 69.0192 13.2197C69.0192 9.8323 71.7401 7.01416 77.3801 7.01416C79.875 7.01416 82.4255 7.61131 84.2684 8.77943L82.8514 12.2803C81.0085 11.2274 79.11 10.7141 77.3523 10.7141C74.6314 10.7141 73.583 11.739 73.583 12.9909C73.583 16.6629 85.1185 14.1294 85.1185 21.4454C85.1185 24.7751 82.3698 27.6229 76.7003 27.6229C73.5535 27.6229 70.3788 26.6835 68.6228 25.3164L68.6211 25.3181Z" fill="#121723"/>
<path d="M95.5454 26.343C94.8082 27.0554 93.6173 27.3959 92.5133 27.3959C89.9054 27.3959 88.4885 25.8593 88.4885 23.3537V13.6474H85.7676V12.4234H88.4885V9.1792H89.9054V12.4234H94.61V13.6474H89.9054V23.2123C89.9054 25.119 90.8408 26.1719 92.6541 26.1719C93.5321 26.1719 94.3544 25.8873 94.9508 25.346L95.5454 26.343Z" fill="#121723"/>
<path d="M109.46 17.8603V27.282H108.101V24.635C107.166 26.3427 105.352 27.3955 102.772 27.3955C99.4566 27.3955 97.4434 25.6879 97.4434 23.1544C97.4434 20.9054 98.8603 18.9987 102.97 18.9987H108.044V17.8027C108.044 15.0422 106.541 13.5615 103.65 13.5615C101.609 13.5615 99.7678 14.3298 98.5491 15.4403L97.8397 14.4153C99.3141 13.1058 101.468 12.3096 103.763 12.3096C107.419 12.3096 109.46 14.1883 109.46 17.8603ZM108.044 22.8994V20.1092H102.998C99.9365 20.1092 98.8603 21.3908 98.8603 23.0985C98.8603 25.0349 100.362 26.2292 102.97 26.2292C105.578 26.2292 107.193 25.0331 108.044 22.8994Z" fill="#121723"/>
<path d="M127.828 18.6006V27.282H126.411V18.7141C126.411 15.3547 124.625 13.5912 121.621 13.5912C118.135 13.5912 116.009 15.8401 116.009 19.3689V27.282H114.592V12.4231H115.953V15.6393C116.946 13.5615 119.015 12.3096 121.821 12.3096C125.421 12.3096 127.829 14.445 127.829 18.6006H127.828Z" fill="#121723"/>
<path d="M147.693 19.8535C147.693 24.2937 144.546 27.3965 140.381 27.3965C137.717 27.3965 135.478 26.059 134.315 23.7821V27.283H132.955V6.1626H134.372V15.8131C135.563 13.5921 137.773 12.3122 140.381 12.3122C144.546 12.3122 147.693 15.387 147.693 19.8552V19.8535ZM146.276 19.8535C146.276 16.1239 143.698 13.5903 140.295 13.5903C136.893 13.5903 134.344 16.1239 134.344 19.8535C134.344 23.5831 136.895 26.1166 140.295 26.1166C143.696 26.1166 146.276 23.5831 146.276 19.8535Z" fill="#121723"/>
<path d="M164.332 12.4229V27.2818H162.972V24.0935C162.009 26.1713 159.996 27.3953 157.388 27.3953C153.619 27.3953 151.209 25.2599 151.209 21.1043V12.4229H152.626V20.9908C152.626 24.3502 154.411 26.1137 157.501 26.1137C160.846 26.1137 162.915 23.8648 162.915 20.336V12.4229H164.332Z" fill="#121723"/>
<path d="M169.629 6.16064H171.046V27.281H169.629V6.16064Z" fill="#121723"/>
</svg>
