<svg width="172" height="32" viewBox="0 0 172 32" fill="none" xmlns="http://www.w3.org/2000/svg">
<path d="M0.66381 12.9394C0.434661 13.1521 0.212734 13.374 0 13.6038C0.759672 13.0195 1.585 12.5244 2.45826 12.1285C5.97101 10.5645 10.0025 10.709 13.3872 12.5054C13.7299 12.7083 13.8914 12.6104 13.9794 12.2506C14.8973 8.52516 17.4803 5.42148 20.9924 3.84634C21.8696 3.46027 22.7888 3.17596 23.731 3C22.0581 3.02823 20.4074 3.39198 18.8775 4.07023C16.1553 5.29608 13.9617 7.45624 12.6958 10.1587C9.83699 9.29862 6.76482 9.49165 4.03604 10.7024C2.79641 11.2605 1.65788 12.0169 0.664466 12.9394H0.66381Z" fill="white"/>
<path d="M17.6914 25.4524L19.2509 21.9795C20.9234 23.2035 23.4166 24.0573 25.7984 24.0573C28.5193 24.0573 29.6251 23.1459 29.6251 21.9219C29.6251 18.1923 18.0895 20.7555 18.0895 13.3539C18.0895 9.96658 20.8104 7.14844 26.4504 7.14844C28.9453 7.14844 31.4958 7.74559 33.3387 8.91371L31.9217 12.4146C30.0788 11.3617 28.1803 10.8483 26.4226 10.8483C23.7017 10.8483 22.6533 11.8733 22.6533 13.1252C22.6533 16.7972 34.1888 14.2636 34.1888 21.5796C34.1888 24.9094 31.4401 27.7572 25.7706 27.7572C22.6238 27.7572 19.4509 26.8178 17.6931 25.4507L17.6914 25.4524Z" fill="white"/>
<path d="M49.8025 18.6772V27.4162H45.6647V25.5095C44.8423 26.9046 43.255 27.6449 41.0157 27.6449C37.4446 27.6449 35.3184 25.6527 35.3184 23.0057C35.3184 20.3586 37.2169 18.4222 41.8659 18.4222H45.3813C45.3813 16.5155 44.2477 15.405 41.8659 15.405C40.2507 15.405 38.5782 15.9463 37.4725 16.8281L35.8851 13.7253C37.5576 12.5293 40.023 11.8745 42.4605 11.8745C47.1094 11.8745 49.8008 14.0379 49.8008 18.6772H49.8025ZM45.3813 22.5761V21.0099H42.3475C40.2785 21.0099 39.6266 21.7782 39.6266 22.8031C39.6266 23.9136 40.5619 24.6539 42.1214 24.6539C43.5958 24.6539 44.8701 23.9712 45.3813 22.5761Z" fill="white"/>
<path d="M66.5799 18.6772V27.4162H62.442V25.5095C61.6197 26.9046 60.0323 27.6449 57.793 27.6449C54.222 27.6449 52.0957 25.6527 52.0957 23.0057C52.0957 20.3586 53.9942 18.4222 58.6432 18.4222H62.1586C62.1586 16.5155 61.0251 15.405 58.6432 15.405C57.0281 15.405 55.3555 15.9463 54.2498 16.8281L52.6625 13.7253C54.335 12.5293 56.8003 11.8745 59.2378 11.8745C63.8868 11.8745 66.5781 14.0379 66.5781 18.6772H66.5799ZM62.1586 22.5761V21.0099H59.1248C57.0559 21.0099 56.4039 21.7782 56.4039 22.8031C56.4039 23.9136 57.3393 24.6539 58.8988 24.6539C60.3731 24.6539 61.6475 23.9712 62.1586 22.5761Z" fill="white"/>
<path d="M68.6211 25.4524L70.1806 21.9795C71.8531 23.2035 74.3463 24.0573 76.7281 24.0573C79.449 24.0573 80.5547 23.1459 80.5547 21.9219C80.5547 18.1923 69.0192 20.7555 69.0192 13.3539C69.0192 9.96658 71.7401 7.14844 77.3801 7.14844C79.875 7.14844 82.4255 7.74559 84.2684 8.91371L82.8514 12.4146C81.0085 11.3617 79.11 10.8483 77.3523 10.8483C74.6314 10.8483 73.583 11.8733 73.583 13.1252C73.583 16.7972 85.1185 14.2636 85.1185 21.5796C85.1185 24.9094 82.3698 27.7572 76.7003 27.7572C73.5535 27.7572 70.3788 26.8178 68.6228 25.4507L68.6211 25.4524Z" fill="white"/>
<path d="M95.5454 26.4768C94.8082 27.1892 93.6173 27.5297 92.5133 27.5297C89.9054 27.5297 88.4885 25.9931 88.4885 23.4875V13.7812H85.7676V12.5572H88.4885V9.31299H89.9054V12.5572H94.61V13.7812H89.9054V23.3461C89.9054 25.2528 90.8408 26.3057 92.6541 26.3057C93.5321 26.3057 94.3544 26.0211 94.9508 25.4798L95.5454 26.4768Z" fill="white"/>
<path d="M109.46 17.9941V27.4158H108.101V24.7688C107.166 26.4765 105.352 27.5293 102.772 27.5293C99.4566 27.5293 97.4434 25.8217 97.4434 23.2881C97.4434 21.0392 98.8603 19.1325 102.97 19.1325H108.044V17.9365C108.044 15.1759 106.541 13.6953 103.65 13.6953C101.609 13.6953 99.7678 14.4636 98.5491 15.574L97.8397 14.5491C99.3141 13.2396 101.468 12.4434 103.763 12.4434C107.419 12.4434 109.46 14.3221 109.46 17.9941ZM108.044 23.0332V20.243H102.998C99.9365 20.243 98.8603 21.5246 98.8603 23.2323C98.8603 25.1687 100.362 26.363 102.97 26.363C105.578 26.363 107.193 25.1669 108.044 23.0332Z" fill="white"/>
<path d="M127.828 18.7344V27.4158H126.411V18.8479C126.411 15.4885 124.625 13.725 121.621 13.725C118.135 13.725 116.009 15.9739 116.009 19.5027V27.4158H114.592V12.5569H115.953V15.7731C116.946 13.6953 119.015 12.4434 121.821 12.4434C125.421 12.4434 127.829 14.5788 127.829 18.7344H127.828Z" fill="white"/>
<path d="M147.693 19.9873C147.693 24.4275 144.546 27.5302 140.381 27.5302C137.717 27.5302 135.478 26.1928 134.315 23.9159V27.4167H132.955V6.29639H134.372V15.9469C135.563 13.7259 137.773 12.446 140.381 12.446C144.546 12.446 147.693 15.5208 147.693 19.989V19.9873ZM146.276 19.9873C146.276 16.2577 143.698 13.7241 140.295 13.7241C136.893 13.7241 134.344 16.2577 134.344 19.9873C134.344 23.7168 136.895 26.2504 140.295 26.2504C143.696 26.2504 146.276 23.7168 146.276 19.9873Z" fill="white"/>
<path d="M164.332 12.5571V27.4161H162.972V24.2278C162.009 26.3056 159.996 27.5296 157.388 27.5296C153.619 27.5296 151.209 25.3942 151.209 21.2385V12.5571H152.626V21.1251C152.626 24.4845 154.411 26.248 157.501 26.248C160.846 26.248 162.915 23.9991 162.915 20.4703V12.5571H164.332Z" fill="white"/>
<path d="M169.629 6.29492H171.046V27.4153H169.629V6.29492Z" fill="white"/>
</svg>
