<svg width="32" height="32" viewBox="0 0 32 32" fill="none" xmlns="http://www.w3.org/2000/svg">
<path d="M9.25359 6.66678C9.25324 7.37402 8.97195 8.05216 8.4716 8.55201C7.97125 9.05185 7.29284 9.33247 6.58559 9.33211C5.87835 9.33176 5.20021 9.05047 4.70036 8.55012C4.20052 8.04977 3.9199 7.37136 3.92026 6.66411C3.92061 5.95687 4.2019 5.27873 4.70225 4.77889C5.2026 4.27904 5.88101 3.99843 6.58826 3.99878C7.2955 3.99913 7.97364 4.28042 8.47349 4.78077C8.97333 5.28112 9.25395 5.95954 9.25359 6.66678ZM9.33359 11.3068H4.00026V28.0001H9.33359V11.3068ZM17.7603 11.3068H12.4536V28.0001H17.7069V19.2401C17.7069 14.3601 24.0669 13.9068 24.0669 19.2401V28.0001H29.3336V17.4268C29.3336 9.20011 19.9203 9.50678 17.7069 13.5468L17.7603 11.3068Z" fill="#FEFEFF"/>
</svg>
