<svg width="32" height="32" viewBox="0 0 32 32" fill="none" xmlns="http://www.w3.org/2000/svg">
<path d="M28.7984 7.93061C27.8199 8.36409 26.782 8.64863 25.7193 8.77476C26.8263 8.11128 27.6762 7.06064 28.0765 5.80881C27.0241 6.43328 25.8728 6.87326 24.6722 7.10974C23.6942 6.06787 22.301 5.41675 20.759 5.41675C17.7983 5.41675 15.3978 7.81711 15.3978 10.7776C15.3978 11.1979 15.4453 11.607 15.5366 11.9995C11.0811 11.7758 7.13089 9.64156 4.48668 6.39808C4.02531 7.18986 3.76094 8.11087 3.76094 9.09323C3.76094 10.9532 4.70747 12.594 6.14588 13.5555C5.29454 13.5288 4.46193 13.2989 3.71756 12.8848C3.71725 12.9073 3.71725 12.9298 3.71725 12.9523C3.71725 15.5498 5.56519 17.7166 8.0176 18.2091C7.22816 18.4238 6.40008 18.4552 5.59663 18.301C6.27878 20.4308 8.2587 21.9807 10.6046 22.0241C8.76978 23.4619 6.45813 24.319 3.94651 24.319C3.51372 24.319 3.08705 24.2936 2.66763 24.2441C5.04012 25.7652 7.85806 26.6527 10.8856 26.6527C20.7466 26.6527 26.1388 18.4837 26.1388 11.3994C26.1388 11.1668 26.1337 10.9357 26.1233 10.7058C27.1728 9.94705 28.0787 9.0073 28.7984 7.93061Z" fill="#FEFEFF"/>
</svg>
