<svg width="24" height="24" viewBox="0 0 24 24" fill="none" xmlns="http://www.w3.org/2000/svg">
<path d="M21.5991 5.9479C20.8652 6.27301 20.0868 6.48641 19.2897 6.58101C20.1199 6.0834 20.7574 5.29542 21.0576 4.35655C20.2683 4.8249 19.4048 5.15488 18.5044 5.33224C17.7709 4.55084 16.726 4.0625 15.5695 4.0625C13.349 4.0625 11.5486 5.86277 11.5486 8.08317C11.5486 8.39835 11.5842 8.70518 11.6527 8.99953C8.3111 8.8318 5.34842 7.23111 3.36526 4.7985C3.01923 5.39234 2.82096 6.08309 2.82096 6.81986C2.82096 8.21484 3.53085 9.44547 4.60967 10.1665C3.97116 10.1465 3.3467 9.97409 2.78842 9.66357C2.78819 9.68041 2.78819 9.69726 2.78819 9.71417C2.78819 11.6623 4.17414 13.2874 6.01345 13.6568C5.42137 13.8178 4.80031 13.8414 4.19772 13.7257C4.70934 15.3231 6.19428 16.4855 7.95367 16.518C6.57759 17.5964 4.84385 18.2392 2.96013 18.2392C2.63554 18.2392 2.31554 18.2201 2.00098 18.183C3.78034 19.3238 5.8938 19.9895 8.16442 19.9895C15.5602 19.9895 19.6043 13.8627 19.6043 8.54947C19.6043 8.37507 19.6005 8.20168 19.5927 8.02928C20.3799 7.46023 21.0593 6.75541 21.5991 5.9479Z" fill="#55ACEE"/>
</svg>
