<svg width="24" height="24" viewBox="0 0 24 24" fill="none" xmlns="http://www.w3.org/2000/svg">
<path d="M22.5142 6.60607C22.388 6.1397 22.1418 5.71453 21.8002 5.37291C21.4585 5.03128 21.0334 4.78512 20.567 4.65895C18.8595 4.19336 11.9882 4.19336 11.9882 4.19336C11.9882 4.19336 5.11663 4.20749 3.40943 4.67308C2.94308 4.79927 2.51792 5.04544 2.1763 5.38706C1.83467 5.72869 1.58851 6.15384 1.46231 6.6202C0.945856 9.65391 0.745493 14.2763 1.47644 17.1885C1.60264 17.6548 1.8488 18.08 2.19043 18.4216C2.53205 18.7632 2.9572 19.0094 3.42356 19.1356C5.13089 19.6012 12.0023 19.6012 12.0023 19.6012C12.0023 19.6012 18.8738 19.6012 20.5811 19.1356C21.0475 19.0094 21.4726 18.7632 21.8142 18.4216C22.1559 18.08 22.402 17.6548 22.5282 17.1885C23.0728 14.1506 23.2407 9.53106 22.5141 6.6062L22.5142 6.60607Z" fill="white"/>
<path d="M10.002 14.8979L15.1843 11.8963L10.002 8.89453V14.8979Z" fill="#1C1D21"/>
</svg>
