<svg width="158" height="48" viewBox="0 0 158 48" fill="none" xmlns="http://www.w3.org/2000/svg">
<g clip-path="url(#clip0_47_7640)">
<path d="M55.423 18.1779V15.6869H66.38V18.1779H62.304V32.0529H59.47V18.1779H55.423ZM73.521 22.7549C73.082 22.677 72.6369 22.6381 72.191 22.6389C70.371 22.6389 69.301 23.8269 69.301 26.2309V32.0239H66.611V20.5539H69.242V22.1759H69.3C69.82 21.1909 70.977 20.1759 72.51 20.1759C72.943 20.1759 73.232 20.2059 73.521 20.2349V22.7549ZM86.387 32.0239H83.785V30.5759H83.727C82.947 31.5609 81.703 32.4589 79.795 32.4589C77.222 32.4589 74.302 30.4019 74.302 26.2889C74.302 22.6389 76.875 20.2059 79.997 20.2059C81.905 20.2059 83.062 21.2189 83.757 22.1169H83.814V20.5529H86.416V32.0239H86.386H86.387ZM80.489 30.0839C82.252 30.0839 83.9 28.5479 83.9 26.3459C83.9 24.0289 82.397 22.4939 80.518 22.4939C78.148 22.4939 77.019 24.4059 77.019 26.2889C77.019 28.1999 78.119 30.0829 80.489 30.0829V30.0839ZM89.51 20.5529H92.17V22.0019H92.227C93.123 20.6979 94.453 20.1769 95.725 20.1769C98.096 20.1769 100.178 21.7409 100.178 25.4199V32.0239H97.488V25.5639C97.488 23.5939 96.564 22.5519 95.031 22.5519C93.354 22.5519 92.198 23.7399 92.198 25.9699V32.0529H89.51V20.5529H89.511H89.51ZM108.302 23.5079C108.186 22.6679 107.55 22.1179 106.769 22.1179C105.844 22.1179 105.324 22.6969 105.324 23.3339C105.324 24.0289 105.671 24.5219 107.665 25.1879C110.123 25.9699 110.99 27.2449 110.99 28.8669C110.99 30.9809 109.4 32.4589 106.769 32.4589C104.023 32.4589 102.664 30.9519 102.461 28.8089H104.948C105.063 29.7649 105.642 30.4889 106.827 30.4889C107.839 30.4889 108.417 29.8519 108.417 29.0689C108.417 28.2009 107.926 27.6499 106.018 27.0129C103.878 26.3179 102.779 25.2459 102.779 23.4499C102.779 21.5669 104.254 20.1769 106.682 20.1769C109.14 20.1769 110.441 21.6249 110.73 23.5069H108.302V23.5079ZM113.332 15.2809H116.31V18.0039H113.332V15.2809ZM113.477 20.5529H116.165V32.0529H113.477V20.5529ZM124.463 23.5079C124.347 22.6679 123.711 22.1179 122.93 22.1179C122.005 22.1179 121.485 22.6969 121.485 23.3339C121.485 24.0289 121.832 24.5219 123.827 25.1879C126.284 25.9699 127.151 27.2449 127.151 28.8669C127.151 30.9809 125.561 32.4589 122.93 32.4589C120.184 32.4589 118.825 30.9519 118.623 28.8089H121.109C121.225 29.7649 121.803 30.4889 122.988 30.4889C124 30.4889 124.578 29.8519 124.578 29.0689C124.578 28.2009 124.087 27.6499 122.179 27.0129C120.039 26.3179 118.941 25.2459 118.941 23.4499C118.941 21.5669 120.415 20.1769 122.844 20.1769C125.301 20.1769 126.602 21.6249 126.891 23.5069H124.463V23.5079ZM128.308 20.5529H129.753V16.8749H132.442V20.5529H135.304V22.8129H132.413V27.9399C132.413 29.5039 132.905 29.9389 134.003 29.9389C134.466 29.9389 134.986 29.8519 135.391 29.7359V31.9079C134.784 32.0819 134.032 32.1689 133.367 32.1689C130.505 32.1689 129.753 30.4309 129.753 28.0849V22.8129H128.308V20.5529ZM142.619 20.1769C146.204 20.1769 148.748 22.8129 148.748 26.2889C148.748 29.6779 146.175 32.4589 142.619 32.4589C139.121 32.4589 136.49 29.7649 136.49 26.2889C136.49 22.7259 139.15 20.1769 142.619 20.1769ZM142.619 30.0539C144.643 30.0539 146.03 28.4319 146.03 26.2889C146.03 24.2609 144.729 22.5519 142.619 22.5519C140.566 22.5519 139.207 24.1449 139.207 26.2889C139.207 28.4899 140.769 30.0539 142.619 30.0539ZM156.671 22.6389C154.849 22.6389 153.78 23.8269 153.78 26.2309V32.0239H151.091V20.5539H153.722V22.1759H153.78C154.3 21.1909 155.456 20.1759 156.989 20.1759C157.422 20.1759 157.711 20.2059 158.001 20.2349V22.7549C157.562 22.6769 157.117 22.6381 156.671 22.6389ZM20.816 37.7309C20.4477 37.7304 20.0947 37.5837 19.8344 37.3231C19.5742 37.0625 19.428 36.7092 19.428 36.3409V11.3699C19.4285 11.0957 19.5101 10.8277 19.6626 10.5998C19.8152 10.3718 20.0318 10.1942 20.2851 10.0891C20.5385 9.98413 20.8172 9.95646 21.0863 10.0096C21.3554 10.0628 21.6026 10.1944 21.797 10.3879C22.057 10.6479 22.203 11.0019 22.203 11.3699V36.3399C22.203 37.0929 21.567 37.7299 20.816 37.7299V37.7309ZM15.033 25.2469H8.383C8.01487 25.2461 7.66209 25.0994 7.40206 24.8388C7.14204 24.5782 6.996 24.2251 6.996 23.8569C6.996 23.0739 7.603 22.4659 8.384 22.4659H15.034C15.4027 22.4659 15.7562 22.6124 16.0169 22.8731C16.2776 23.1337 16.424 23.4873 16.424 23.8559C16.424 24.2246 16.2776 24.5781 16.0169 24.8388C15.7562 25.0995 15.4027 25.2459 15.034 25.2459V25.2469H15.033ZM33.276 25.2469H26.598C26.2297 25.2464 25.8767 25.0997 25.6164 24.8391C25.3562 24.5785 25.21 24.2252 25.21 23.8569C25.21 23.0739 25.817 22.4659 26.598 22.4659H33.248C33.6161 22.4667 33.9689 22.6135 34.2289 22.8741C34.489 23.1347 34.635 23.4878 34.635 23.8559C34.635 24.6379 34.028 25.2459 33.276 25.2459V25.2469Z" fill="#FEFEFF"/>
<path d="M20.816 44.712C9.338 44.712 0 35.356 0 23.856C0 12.356 9.338 3 20.816 3C32.294 3 41.632 12.356 41.632 23.856C41.632 35.356 32.294 44.712 20.816 44.712ZM20.816 5.781C10.871 5.781 2.776 13.891 2.776 23.856C2.776 33.821 10.871 41.931 20.816 41.931C30.762 41.931 38.856 33.821 38.856 23.856C38.856 13.891 30.763 5.781 20.817 5.781H20.816Z" fill="#FEFEFF"/>
</g>
<defs>
<clipPath id="clip0_47_7640">
<rect width="158" height="48" fill="white"/>
</clipPath>
</defs>
</svg>
