<svg width="106" height="48" viewBox="0 0 106 48" fill="none" xmlns="http://www.w3.org/2000/svg">
<g clip-path="url(#clip0_47_7645)">
<path fill-rule="evenodd" clip-rule="evenodd" d="M18.5 4L0.5 10V29.5L6.5 31.5V37L24.5 43V11.5L18.5 13.5V4ZM8.5 32.167L18.5 35.5V15.608L22.5 14.275V40.225L8.5 35.56V32.167Z" fill="#EEEEEE"/>
<path d="M43.3997 20.4496V30.9996H47.8456V20.4496H51.3756V17.0576H39.8896V20.4506H43.3997V20.4496ZM53.6046 25.2476C53.6046 29.2256 55.9046 31.2536 59.9806 31.2536C63.8806 31.2536 66.3766 29.4006 66.3766 25.2086V17.0586H61.9296V25.0526C61.9296 26.8856 61.5396 27.7826 59.9796 27.7826C58.3996 27.7826 58.0096 26.8856 58.0096 25.0726V17.0576H53.6036V25.2476H53.6046Z" fill="#EEEEEE"/>
<path fill-rule="evenodd" clip-rule="evenodd" d="M69.4648 30.9996V17.0576H75.0229C79.0399 17.0576 80.7558 18.8516 80.7558 21.8346V21.9126C80.7558 24.8186 78.8258 26.4566 75.2178 26.4566H73.8718V30.9996H69.4648ZM74.7878 23.4926H73.8718V20.3526H74.8078C75.9578 20.3526 76.5629 20.7826 76.5629 21.8546V21.9326C76.5629 22.9656 75.9578 23.4926 74.7878 23.4926Z" fill="#EEEEEE"/>
<path d="M83.063 30.9996V17.0576H87.49V27.5876H92.56V30.9996H83.063ZM95.062 17.0576V30.9996H105.28V27.6066H99.469V25.5206H103.837V22.4206H99.469V20.4506H104.968V17.0576H95.062Z" fill="#EEEEEE"/>
</g>
<defs>
<clipPath id="clip0_47_7645">
<rect width="105" height="48" fill="white" transform="translate(0.5)"/>
</clipPath>
</defs>
</svg>
